# xmcd
#
# Track frame offsets: 
#        150
#        22200
#        44106
#        65625
#
# Disc length: 1283 seconds
#
# Revision: 0
# Processed by: cddbd v1.5.2PL0 Copyright (c) Steve Scherf et al.
# Submitted via: ExactAudioCopy v0.95b4
#
DISCID=3c050104
DTITLE=Gatorblues - Gatorblues EP
DYEAR=2000
DGENRE=Blues
TTITLE0=Big Boss Man
TTITLE1=Ain't No Sunshine
TTITLE2=Mojo
TTITLE3=Jelly Roll
EXTD=
EXTT0=
EXTT1=
EXTT2=
EXTT3=
PLAYORDER=
